<svg id="Layer_1" data-name="Layer 1" xmlns="http://www.w3.org/2000/svg" width="1912" height="1467" viewBox="0 0 1912 1467"><path d="M296.32,398.43c-12-9.85-20.54-22.66-27.68-36.32a411,411,0,0,1-20-45.43A479.05,479.05,0,0,1,223,218.16c-1.81-12.21-1.12-32.52-19.06-29.77-12.38,1.89-20.42,12.64-25.31,23.33-6.79,14.83-10.93,31.06-16,46.52q-8.44,25.77-16.88,51.53C135,342.68,125,383.64,90,399a4,4,0,0,0-2.26,5.45c-1.69,2.83-.31,7.7,4.1,8a183.45,183.45,0,0,0,58.94-5.35c3.78-1,4.29-4.88,2.72-7.47,1.46-9.27,5.58-18.25,8.77-27l10-27.33,5.32-14.58c.78-2.13,1.34-5.46,2.66-7.29s3-1.49,5.3-1.73l15.84-1.63c3.63-.38,10.54-2.6,12.89.72,7.57,10.72,7.69,27.46,4.72,39.64C215.69,374,207.83,386.27,196.1,394c-4.36,2.88-2.35,8.79,2.52,9.32A674.66,674.66,0,0,0,292.79,407C296.74,406.84,299.87,401.34,296.32,398.43ZM211,394.58a68.93,68.93,0,0,0,18.19-62.31c-1.35-6.25-3.65-13.61-7.7-18.66-5.75-7.16-16.22-4-24.06-3.15-4.62.47-9.24.92-13.86,1.42-3.67.4-7.4.6-10.08,3.49-2.44,2.62-3.36,6.68-4.55,9.94L164,339l-11.64,31.9c-3.33,9.1-7,18.06-8.63,27.63a173.73,173.73,0,0,1-39.78,4.38c22.14-13.94,34.16-39.28,42.56-63.5,11.38-32.84,21.73-66.06,32.55-99.09,4-12.27,7.2-27.11,16.61-36.63,3-3.08,12.48-9.38,14.79-2.71,2.4,6.9,2.23,15.37,3.34,22.59a479.13,479.13,0,0,0,24.54,94.07,439.67,439.67,0,0,0,21.32,48.82c5.72,11,12.4,21.71,20.87,30.81A674.33,674.33,0,0,1,211,394.58Z"/><path d="M223.41,284.1a202,202,0,0,0-10.51-44c-1.18-3.27-4.25-4.37-7.35-3-8.54,3.83-13.66,12.13-16.07,20.9a99.43,99.43,0,0,0-3.11,33.29,5.09,5.09,0,0,0,4.24,4.68,4.18,4.18,0,0,0,4.66,3.41c6.73-.49,14.5,0,21-1.8C222.63,295.82,224.11,290,223.41,284.1ZM212.91,288c-1.44,1-6.37.52-8.24.65l-8.42.62A98.82,98.82,0,0,1,198.32,264c1.18-5.67,3.17-11,7.13-14.83A199.19,199.19,0,0,1,212,275.25C212.56,278.18,215.11,286.5,212.91,288Z"/><path d="M472.07,386.91c-10.09-5.35-12.71-17.44-14-27.92-1.81-14.89-2.65-30-3.45-45a441.23,441.23,0,0,1-.19-47.14c.82-15.36,2.33-30.67,2.87-46.05.54-15,.12-30.19-2.69-45-1-5.25-2.86-11.21-8.72-12.75s-11.34,2.41-15.05,6.59c-9,10.17-15.95,22.39-22.4,34.28-3,5.6-6,11.25-9,16.87-1.63,3.07-3.27,6.13-5,9.17-.86,1.55-4,9.28-5.89,9.41-4.13.28-5.65-18.15-6-20.94-1.09-7.92-2.15-15.94-5.44-23.3-5.12-11.44-16.07-21.62-29.35-20.37-2.59.25-5.14,2.1-5,5a1567.12,1567.12,0,0,1-3.7,203.51,5.25,5.25,0,0,0-2.88.44c-8.72,3.91-13.94,12.25-14.7,21.63-.22,2.8,2.48,4.87,5,5,11.93.62,23.86.82,35.8.53,6-.14,11.93-.38,17.89-.77,4-.27,8.44-.46,11.45-3.53,7.23-7.36-1.42-15.58-5.2-21.87-5.21-8.67-4.37-20-4.58-29.74q-.75-35.24-1.51-70.46c0-.68,0-4.72,0-8.68a17.06,17.06,0,0,0,1.86,3.43c5,5.33,13.76,4.89,19.54,1.11,8.45-5.53,9.84-16.62,13.23-25.31,2.84-7.28,6.89-14.09,12.71-19.09a565.36,565.36,0,0,1-.08,100.19c-1.36,15.12-2.17,32.55-11.63,45.19-4.07,5.43-9.58,10.4-9.09,17.82.41,6.28,5.38,11.09,11.11,13,8.33,2.79,16.75-1.18,24.34-4.33l28.48-11.81C474.52,394.54,476.26,389.14,472.07,386.91Zm-32.32,11.31c-4.25,1.76-8.66,4-13.24,4.72-3.59.56-9.9-.37-9.58-5.3.24-3.64,4.67-7.25,6.76-10a49.27,49.27,0,0,0,6.4-11.13c3.34-7.89,4.85-16.29,5.93-24.75,5.27-41.23,5.14-83.32.91-124.64-.4-3.84-3.92-6.13-7.53-4.31-7.7,3.88-13.72,10.12-18.19,17.44-4.7,7.7-6.7,16.13-10,24.41-1.4,3.56-3.47,7.56-7.55,8.4-4.75,1-4.76-2.46-5.73-6.16-1.8-6.89-11.21-13.07-16.46-5.49-2.33,3.35-1.43,8.35-1.35,12.15q.18,8.92.38,17.86l.76,35.72c.24,11.25.46,22.5.73,33.74.21,9.11.68,18.42,4.72,26.77.71,1.48,8.53,10.93,7.66,12.1s-6.82.48-8.16.55q-5,.27-9.93.43c-11.2.37-22.4.28-33.59-.16a15.62,15.62,0,0,1,5.83-6.76c1.35,4.44,9.32,3.79,9.82-1.87A1565.17,1565.17,0,0,0,353,185.07c10.19,2.21,15.82,13.86,17.92,23.57,2.53,11.67,1,28.33,10.1,37.35,3.65,3.64,9.06,4.72,13.45,1.69,4.83-3.34,7.63-10.74,10.34-15.71,6.64-12.18,12.75-24.66,20-36.52a159.09,159.09,0,0,1,10.94-16c1-1.25,5.5-7.76,7.62-6.61,1.79,1,2,7.77,2.27,9.43,2.4,15.27,2.16,30.87,1.34,46.26-.79,14.72-2.21,29.4-2.8,44.13a463.81,463.81,0,0,0,.8,47.31c.95,15.27,1.48,30.88,4.08,46,1.52,8.79,4.58,17.66,10.63,24.05Z"/><path d="M731.1,381.13c-3.23-6.06-9.58-8.16-15.7-10.23-12.2-4.11-20.1-13.91-25.6-25.17-6.09-12.47-9.18-26.31-12.27-39.76q-5.58-24.25-9.15-48.93c-2.43-16.85-4-33.79-5-50.79-.9-14.62-2-30.43-10.27-43-6.81-10.32-18.24-18.7-31.11-18-11.45.63-20.42,7.66-26.77,16.78-6.81,9.8-10.49,21.47-13.67,32.84L567.38,245.5q-14.14,50.64-28.28,101.28l-6.93,24.84-.06.25a44.09,44.09,0,0,0-23.13,28,5.06,5.06,0,0,0,6.15,6.15,299.29,299.29,0,0,1,59.17-7.41c5.34-.14,6.3-6.44,2.53-9.32-12.13-9.25-10.56-26.8-6.82-39.69,4.74-16.38,11.34-32.35,17.13-48.39,2.89-8,5.73-16,8.66-24,1.1-3,2.24-6.53,5-8.42s6.7-1.81,10-1.86c8.44-.13,17-.43,25.39-.23,4.43.11,5,2.46,5.94,6.31,1.07,4.35,2,8.73,3,13.12a420.58,420.58,0,0,1,7.43,50.93q1,12.45,1.36,24.94c.21,8.19-.46,16.51.05,24.67.39,6.14,2.94,11.36,8.86,13.8,6.7,2.78,15,3.31,22.15,3.67a111.49,111.49,0,0,0,23.08-1.36c6.44-1,14.65-2.06,20.08-6C733.2,393.09,733.94,386.47,731.1,381.13Zm-10.29,8.3c-3.24,1.58-7.45,2.16-10.95,2.88a99.42,99.42,0,0,1-24,1.85,95.55,95.55,0,0,1-11.32-1.11c-2.71-.44-7.82-.66-9.71-3s-.91-7.19-.86-9.81q.1-6.24,0-12.49-.15-12.48-1-24.95a445.16,445.16,0,0,0-6-48c-1.49-8.19-3.18-16.36-5.16-24.44-1.55-6.3-4.24-11.94-11.2-13.28s-15-.28-22.2-.21c-6.73.06-14.33-.67-20.63,2.19-6,2.7-8.89,8.27-11.12,14.12-3,7.79-5.67,15.69-8.5,23.54-5.6,15.51-11.65,30.95-16.7,46.65-4.21,13.11-6.39,27.39-.84,40.44a34.19,34.19,0,0,0,2.84,5.29A314.27,314.27,0,0,0,522,394.36a34.16,34.16,0,0,1,23.66-16.45c6.15-1.11,3.77-10.27-2.17-9.71l25.77-92.33q6.81-24.37,13.61-48.73c4.07-14.61,7.45-29.68,12.74-43.92,3.62-9.75,9.1-21.1,18.89-25.95,11.92-5.9,24.41,1.95,30.7,12.25,7.94,13,7.56,29.41,8.58,44.11,1.1,16.05,2.87,32.05,5.22,48q3.63,24.63,9.29,48.9c3,12.84,6.21,25.65,11.65,37.71,4.84,10.73,11.87,20.9,21.92,27.34,5.43,3.48,11.88,4.34,17.36,7.48C721.88,384.53,724.47,387.65,720.81,389.43Z"/><path d="M641.41,216c-.24-7.19.46-15.16-1.1-22.21-1-4.74-4.14-9.41-9.5-9.5-6.69-.12-10.69,7-13.57,12.05a76.86,76.86,0,0,0-9.91,41.73,5,5,0,0,0,.21,1.25,4.34,4.34,0,0,0,2,6c9.41,4.77,29.88,11,32.3-4.88C643.06,232.62,641.68,223.88,641.41,216Zm-13.22,24.72A29.82,29.82,0,0,1,617.33,238a68.28,68.28,0,0,1,4-27,65,65,0,0,1,6.28-12.5c.6-.94,3-3.41,2.54-4.21.55.73.58,3.15.63,3.75.91,10.57.72,21.36,1.07,32C632,234.14,634,240.86,628.19,240.72Z"/><path d="M913,342.59c-1.13-7.37-2.13-14.78-3.41-22.12-.86-4.89-2.79-9.61-7.39-12s-10.31-1.4-14.57,1.18c-9.85,6-10.11,19.57-15.43,28.75-5.46,9.44-14.94,17.8-26.38,17.87-9.42.06-19.45-5.23-21.87-14.87-1.68-6.68-.1-13.88.62-20.57a170,170,0,0,0,.85-21.64c-.32-16.46-2.35-32.82-3.26-49.25s-1.08-32.66-1.09-49c0-12.35-3.22-30.87,7.71-39.64,4.33-3.47,8.4-7.81,6.32-13.76a9.73,9.73,0,0,0-1-2.1c.36-2.72-1.23-5.76-4.78-5.76-15,0-30-.51-45,0-8.39.27-19.61,3.05-21,12.88-.4,2.72.63,5.29,3.49,6.15,10.67,3.2,12.46,21.39,14.17,30.38a237.82,237.82,0,0,1,3.87,41.34c.38,28.32-3.1,56.51-6.84,84.53-1.72,12.86-3.3,25.82-6.87,38.33a104.59,104.59,0,0,1-7.19,17.9c-2.4,4.85-2.82,10.41,2.72,13.35,4.51,2.39,10.42,1.27,15.27,1.07q11.85-.51,23.67-1.11,21.69-1.09,43.37-2.5,22.67-1.47,45.29-3.29c5.35-.43,11.11-.7,15.41-4.34,4.07-3.44,5.56-8.47,5.67-13.65C915.39,354.68,913.89,348.48,913,342.59Zm-7.74,18.79c-.47,7.39-7.14,7-13,7.45q-20.67,1.65-41.36,3t-41.39,2.43q-10.35.54-20.71,1l-9.86.43c-1.64.07-3.3.24-4.94.2a9,9,0,0,1-1.37,0c.74-2.64,2.83-5.5,3.9-8s2.07-5.18,2.94-7.83a138.33,138.33,0,0,0,4.4-17.59c2.31-12.18,3.73-24.56,5.32-36.86,3.82-29.53,7-59.38,5.09-89.18a224.86,224.86,0,0,0-6.57-42.78c-2.19-8.34-5.57-17.13-12.67-21.93,4.41-3.28,14.32-2.05,18.39-2.05l28.26,0a5.1,5.1,0,0,0,3.14,2,13.75,13.75,0,0,1-1.39,1.26c-.74.63-1.55,1.16-2.29,1.79a24.52,24.52,0,0,0-5.09,5.8c-2.69,4.28-3.85,9.28-4.44,14.24-1.48,12.47-.59,25.46-.5,38,.11,13.72.43,27.45,1.28,41.15s2.42,27.56,2.92,41.38a187.7,187.7,0,0,1-.29,20.68c-.49,6.52-1.85,13.06-1.75,19.62.16,10.26,4.42,19.17,13,25,17.15,11.6,38.67,4.27,50.54-11.09a55.87,55.87,0,0,0,7.52-13.15c2.06-5,2.81-11.63,6.26-16,1.28-1.61,3.38-3.31,5.6-3.2,3.1.14,3.34,3.58,3.77,6,1.17,6.7,2.08,13.46,3.12,20.18C903.94,349.14,905.62,355.43,905.24,361.38Z"/><path d="M1059.57,375.41c-4.2-5.13-10-8.07-16-10.7-5.77-2.56-12.74-5-16.16-10.7-4.49-7.47-3.81-18.42-4.47-26.82q-1.17-14.81-1.93-29.66-1.51-29.67-1.37-59.41c.08-17.83-1.15-37.26,3.48-54.64,2.34-8.73,6.88-15.13,13-21.62,5.55-5.93,10.28-12,10.91-20.35a5,5,0,0,0-3.67-4.82,45.32,45.32,0,0,0-26.92,1.5,5.56,5.56,0,0,0-1.19-.13l-23.26,0c-6.75,0-13.67-.46-20.38.3-9,1-19.48,6-17.91,16.73,1.91,13.07,18.22,13.36,22.85,24.4,2.25,5.38,2.63,11.52,3.21,17.25q1.18,11.72,2.08,23.48c2.29,30,3.28,60.18,3.93,90.3q.24,10.81.42,21.62c.12,6.51.7,13.26-.28,19.74-.71,4.75-2.21,9.44-6.64,11.89-4.19,2.33-8.63,4.6-8.11,10.26.51,5.45,6,8.6,10.83,9.65,7.63,1.64,16,1.71,23.73,2.06a313.18,313.18,0,0,0,50.31-1.82C1060.48,383.43,1062.44,378.92,1059.57,375.41Zm-44.16.64q-9.69-.14-19.36-.88c-3.21-.24-6.46-.46-9.65-.89-1.15-.16-2.91-.85-4-.87h0c3.57-.57,7.31-4.8,9.15-7.59,2.6-3.94,3.76-8.62,4.35-13.24,1.54-11.84.29-24.24,0-36.13-.54-26.86-1.3-53.71-3-80.52-.85-13.73-1.93-27.44-3.36-41.12-1-10-2.27-21.37-10.24-28.55-4.31-3.89-11.46-5.5-14.74-10.37-3.43-5.1,3.22-6.94,7.12-7.51,6.61-1,13.63-.29,20.29-.29l22.7,0a4.06,4.06,0,0,0,3.59.07,36.65,36.65,0,0,1,17.77-2.6c-2.23,5.43-7.67,9.72-11.35,14a52.5,52.5,0,0,0-11,20.57c-4.93,17.56-3.91,37-4,55.09q-.24,30.71,1.3,61.4.79,15.82,2,31.63c.69,8.56.61,18.06,3.62,26.21,2.85,7.69,8.63,12.7,15.85,16.23,3.31,1.61,6.8,3,10.11,4.58Q1029,376.22,1015.41,376.05Z"/><path d="M1229.74,319.9c-.79-5.32-2.13-10.95-7.3-13.68s-11.53-.63-15.58,3.16-5.49,9.16-7.18,14.34c-2.29,7-6.76,10.92-13.35,14-8.59,4-25,11.07-33.45,3.41-4.57-4.15-4.85-11.23-4.94-17-.14-8.14.08-16.31.13-24.46l.15-21.47c0-6-1.66-16.15,3.45-20.59,2.28-2,5.67-2.6,8.5-3.35,3.68-1,7.39-1.94,11.14-2.58,6.84-1.16,14.23-1.28,20.41,2.32,5.44,3.17,6.21,8.27,9.7,12.94,3.15,4.21,9,6,13.06,1.83,4.32-4.41,3.52-13.38,3.71-19a152.43,152.43,0,0,0-1.38-25.71c-.82-6-1.92-12.52-8.12-15.19-6.49-2.78-13.08,1.13-18.53,4.43-12.82,7.77-28.27,10.45-42.79,6.17-8-2.37-11.41-7.1-11.83-15.33-.34-6.86.16-13.65-1.57-20.37l46.68-.11c6.52,0,16.51-2,21.42,3.24,3.94,4.24,6,9.54,11.65,12,3.06,1.32,6.22.35,7.35-3a57.26,57.26,0,0,0-.71-39c-2-5.22-4.71-10.61-9.12-14.22-5.37-4.4-11.6-4.37-18.18-3.58-31.14,3.7-62.27,7.52-93.41,11.28-2.58.31-5.15,2-5,5q4.71,96.54,16.8,192.53c1.59,12.56,2.48,24.92,16,30,5.34,2,11.15,2.46,16.8,2.85,7.85.55,15.72.9,23.58,1.1,23.76.58,54,.47,61.83-27.4C1232.76,343.3,1231.43,331.28,1229.74,319.9Zm-9.77,32c-3.34,11.93-13.35,17.65-25,19.39-13.36,2-27.52.82-40.94.15-10.54-.52-27.93,1.09-31-12-1.87-8.12-2.3-16.86-3.3-25.13q-1.53-12.73-2.94-25.48-2.82-25.49-5.11-51-4.38-48.9-6.84-97.95l74.42-9c6.33-.76,12.86-2.08,19.23-2.17s9.39,4.62,11.78,10a46.59,46.59,0,0,1,3.06,27c-2.1-2.7-3.88-5.83-6.49-7.94-6.26-5-14.76-4.05-22.27-4l-56.27.13c-5,0-6.1,5.95-3.42,8.67a4.67,4.67,0,0,0-.59,3.93c2.8,10.79-1.25,23,5.32,32.87s21.3,12.31,32.37,12.25c12.51-.06,23.84-4,34.46-10.35,1.66-1,5-3.48,7.09-3.24,3.1.36,3,4.4,3.35,6.95a141.92,141.92,0,0,1,1.33,23q-.1,4.71-.49,9.39s0,.24-.07.53c-2.44-4.78-5-8.61-9.68-11.71-11-7.26-24.67-5.44-36.8-2.46-5.33,1.31-11,2.53-15.47,6-4.7,3.68-6.6,9-7.2,14.78-1.44,14.14-.41,28.85-.51,43.05-.08,11.57-2.07,25.95,4.28,36.33,6.07,9.93,17.58,11.51,28.15,9.58s23.26-6.35,31.19-13.82c4.33-4.08,6.4-9.19,8.16-14.75.79-2.51,1.4-5.36,3.16-7.41,2.66-3.11,5.39-3.17,6.43.95C1222,328.61,1222.83,341.67,1220,351.9Z"/><path d="M603.05,669.09a108.16,108.16,0,0,1-36.91-51.94c-3.12-9.69-5.08-20.63,3.46-28.08,6.59-5.75,16.11-7.34,24.39-5a5,5,0,0,0,6.33-4.82A34.42,34.42,0,0,0,592,557.89a6,6,0,0,0-.46-1.1l-10.12-18.4c-2.54-4.61-4.92-10.68-10.57-12.12-11-2.78-14.27,11-16.43,18.53-3,10.46-8.41,22.68-20.46,24.61-12.68,2-16.19-9.64-13.4-19.74,4.91-17.83,26.87-42,7.23-58.86-8.58-7.34-22.16-8.67-33-9.59-12.08-1-24.62.31-35.48,6-9.06,4.75-16.73,12.51-20.36,22.16-3.76,10-2.15,20.8,1,30.71,3.31,10.31,8.48,20.32,9.91,31.16,1.51,11.47-3.68,21-10.25,30-6.87,9.39-14,18.07-18.3,29-4.71,11.91-6.55,24.92-7.28,37.65-.61,10.76.08,22.4,5.75,31.89,6.38,10.69,18.24,15.71,29.26,20.27,24,9.89,53.83,14.08,74.92-4.48,9.8-8.62,14.18-21.18,17.31-33.47,1.58-6.19,2.94-12.45,4.91-18.53,1.18-3.64,3-8.72,6.34-11.18l.65,30.75c.16,7.76-.21,19.63,9.24,22.27,8.87,2.48,13.41-6.18,16.15-13,3.66-9.06,10.76-15.16,20.95-14.81C603.52,677.76,606.55,671.81,603.05,669.09Zm-24.13,5.53a29.39,29.39,0,0,0-7.14,8.47c-1.8,3.27-2.62,7-4.49,10.22-2,3.46-3.06,2.35-3.72-1.25-.82-4.45-.4-9.32-.49-13.83L562.39,646a5.12,5.12,0,0,0-5-5c-21.59-1.74-23.76,33.61-28.35,47.62-3.5,10.71-9.52,19.71-19.74,25-9.61,4.94-20.87,6-31.47,4.53-12.51-1.73-24.94-6.53-36.12-12.27-10.72-5.5-16.5-13.56-17.59-25.64-2-22.7,3.62-46.54,17.25-64.82,6.08-8.15,12.7-16,16.3-25.64,3.53-9.44,2.81-19.48.09-29-5.1-17.92-19.24-39.56-4.2-56.5,7.27-8.21,17.81-12.27,28.58-13.09,11.08-.85,24.87.17,35.11,4.86,11.27,5.16,8.73,17.37,4.67,26.71s-10,17.67-11.86,27.91.63,21.26,10.49,26.53c9.15,4.9,21,2.27,28.73-4,9.23-7.48,13-19.06,15.93-30.11.43-1.59,1-5.44,2.65-6.33,1.44-.79-.11-.84,1.47.66,1.09,1,1.78,3.19,2.49,4.48q4.26,7.75,8.51,15.5a4.21,4.21,0,0,0,1.42,4.56,24.7,24.7,0,0,1,7.52,11.32,36.46,36.46,0,0,0-23.3,6.15c-10.35,7.19-14,18.43-12,30.65,3.71,22.45,17.26,43.87,34.09,59.49A31.07,31.07,0,0,0,578.92,674.62Z"/><path d="M500,498.28a6,6,0,0,0-1.24-.62c-10.16-3.58-21.95-.6-28.68,7.95-6.32,8-8.16,21.3-1.15,29.57,6.85,8.07,19.07,7.28,26.63.72,9.42-8.16,10.17-21.27,10.19-32.84C505.75,499.52,502.72,497.93,500,498.28Zm-8.07,26.55c-2.93,4.67-10.24,9.28-15.09,4.22-4.36-4.54-2.38-13.17,1.23-17.51,4.4-5.29,11.41-6.42,17.67-4.35C495.66,513.29,495.2,519.63,491.92,524.83Z"/><path d="M505.38,588.35c1.06-3-.42-6.89-4.49-6.73-9.34.37-15.93,6.46-21,13.83-5.94,8.6-10.48,18.36-14.39,28a168.89,168.89,0,0,0-9.26,31.35c-1.88,9.77-3.69,20.38-3,30.35.55,7.57,3.1,15.69,10.49,19.14,8.82,4.11,17.95-1.33,24.39-7.24,14.26-13.1,25.68-30.72,30-49.72C522.73,626.78,518.66,604.86,505.38,588.35Zm-13.75,90.29c-4.66,5.8-10.35,13-17.29,16.1-8.09,3.62-10.89-4.29-11.15-10.91-.62-16.21,3.38-33.31,8.55-48.57A160,160,0,0,1,483.38,609c3-5.43,7-13.36,13.09-16.25a5.43,5.43,0,0,0,.91,1.51C518.4,619.16,510.56,655.14,491.63,678.64Z"/><path d="M796.77,455.18c-2.65-6.86-8.29-12.26-16-12.44-5.37-.12-10.24,2.29-15,4.53a88.42,88.42,0,0,1-14.43,5.37,90.24,90.24,0,0,1-62-5.21c-5-2.36-9.48,3.78-6.82,7.25a6.08,6.08,0,0,0-.08,1q.44,87.15.88,174.31c.06,13.12.46,26.3,0,39.42-.36,10.81-1.53,22.29-7.1,31.82-5.42,9.28-17.36,13.84-20,24.8-2.56,10.65,5.7,19.4,16.47,17.17,6.26-1.3,11.69-5.25,17.28-8.14a139.68,139.68,0,0,1,20.11-8.48,146.49,146.49,0,0,1,44.13-7.47c5.45-.09,7-8.66,1.33-9.83-31.66-6.49-32.89-46-31.73-71.45.32-6.94,3.54-24.32,13.78-16.65,7.83,5.86,12.4,15.17,23.65,13.35,2.27-.37,3.49-2.79,3.67-4.82a246.07,246.07,0,0,0,.76-31.78c-.41-9.81-.9-20.22-3.16-29.8-1.58-6.67-6.27-12.76-13.76-12.07-6.32.58-10.08,6-14.79,9.55-13.32,9.94-18.18-31.12-17.62-38.27.63-8.16,3.74-16,10.46-20.92,5.12-3.78,12.28-6.24,18.58-4.23,15.43,4.9,11.23,28.45,13.51,40.69,1.3,6.95,4.09,14.14,9.38,19,5.13,4.75,14.12,8.07,19.91,2.55s4.89-15.46,5.45-22.6q1.31-16.71,2.62-33.41,1.23-15.72,2.46-31.44C799.39,469.72,799.43,462.09,796.77,455.18Zm-7.67,18c-.47,10.11-1.56,20.23-2.35,30.32q-1.28,16.22-2.54,32.43c-.39,4.91-.74,9.82-1.16,14.73a17.3,17.3,0,0,1-.74,4.74c-1.06,2.75-3.28,1.82-5.4.49-12.3-7.74-8.35-29.09-10.75-41.16-2.8-14.12-13.69-24.81-28.67-23-14.31,1.69-25.8,12.39-29.51,26.12-2.36,8.73-1.89,17.93-.2,26.73,1.51,7.92,3.72,16.73,8.05,23.64,4.09,6.53,11,11.17,18.82,8.39,3.29-1.17,6-3.43,8.55-5.72,1.36-1.21,4.66-5.28,6.82-5,3.33.47,3.58,8.27,3.89,10.58.8,5.83,1.35,11.69,1.69,17.56a242.31,242.31,0,0,1-.16,30.13c-3.48-1.83-6.79-6.61-9-8.63-4.16-3.83-9.1-6.84-15-6.33-13.41,1.16-17.07,17.71-17.57,28.59-.81,17.87-.83,37,6.82,53.52a53.29,53.29,0,0,0,14.77,19.19,154.93,154.93,0,0,0-51.26,16.3c-4.3,2.26-9.78,6.73-14.86,6.75-7.07,0-2-8.65.42-11.06,3.6-3.65,7.85-6.49,11.13-10.5a48.11,48.11,0,0,0,7.63-13.42c3.63-9.49,4.59-19.89,4.88-30,.36-12.54,0-25.12-.05-37.67q-.21-40.83-.41-81.67l-.45-89.81a99.71,99.71,0,0,0,69.42.24c6-2.27,17.48-10.89,23.21-4.88C789.46,459.34,789.37,467.44,789.1,473.21Z"/><path d="M987.38,692.71c-2-8.51-10-12.88-18.06-14-10.17-1.39-19.1,2.68-29,3.92-5,.63-10.45.32-14.06-3.65s-4.52-10-5.4-15.06c-2.37-13.79-4.43-27.64-6.65-41.46q-3.68-23-7.36-45.9c-2.46-15.38-5.39-30.8-6-46.4-.94-25,6.11-53.52,30.47-65.48,4.79-2.35,2-9-2.52-9.32l-54.11-3.61c-2.23-2.63-7-2.92-8.34.78a5.29,5.29,0,0,0-1.1,5.43,566.11,566.11,0,0,0-7.52,157.42c1.2,12.83,3.25,25.53,4.73,38.33,1.35,11.6,2.19,24.51-3.55,35.15-5.2,9.61-15,16.62-14.63,28.6.37,10.95,9.57,16.39,19.73,15.76,13.11-.8,26.36-3.74,39.34-5.66l41.29-6.13C959.17,719.29,992.73,715.47,987.38,692.71Zm-9.79,5.58c-1,3.77-5.37,6.17-8.64,7.71-10,4.71-22.08,5.08-32.84,6.68l-39.32,5.83-19.66,2.91c-5.65.84-12.86,3.14-18.52,1.52-12.5-3.59,3.66-20.89,6.81-25.51,13.21-19.41,6.76-44.32,4.11-65.8a556.94,556.94,0,0,1,5.19-169.87L914,464.38c-11.09,10-18.24,24.24-21.2,38.85-5.11,25.19.37,51,4.37,76l12.52,78.12c1.6,9.94,2.37,21.7,10,29.21s18.44,6.94,28.14,4.82c8.22-1.79,17.4-5.28,25.57-1.27C976.52,691.64,978.56,694.76,977.59,698.29Z"/><path d="M1136.53,557.65c-.2-13.77-.65-27.53-1.26-41.29-.56-12.42-.63-25.13-3-37.36-3.25-16.54-15.12-33.71-32.07-35.66a4.75,4.75,0,0,0-4.71-4c-20.23-.49-33,18.69-41.17,34.7-9.74,19.11-15.5,39.93-18.35,61.15-3.08,22.91-2.71,46.08-.52,69.06a651.06,651.06,0,0,0,10.5,71.11c3.82,18.33,12.84,38.2,32.28,44.11,18.36,5.59,36.44-7.11,44.54-23,4.84-9.5,7-19.93,8.43-30.41,1.56-11.53,2.64-23.14,3.48-34.74C1136.42,606.8,1136.88,582.22,1136.53,557.65Zm-10.74,54.05c-.93,20.49-1.87,41.61-5.92,61.76-3.2,16-12.22,36-31,37.33-18.67,1.3-28.61-18.57-32.32-33.81-4.9-20.16-7.53-41.34-9.94-61.91-2.43-20.73-3.69-41.68-2.36-62.53s5.38-41.77,13.17-61.25c5.27-13.17,14.44-34.43,29.38-40.35a4.78,4.78,0,0,0,5.66,2.73c19-4.6,28.84,17.38,30.9,32.35,2.78,20.27,2.57,41.36,3,61.8C1126.83,569.11,1126.75,590.42,1125.79,611.7Z"/><path d="M1110.31,512.69c-.91-10.91-.82-25-11.15-31.08,1.67-5.59-7.5-7.86-9.82-2.14-13.54,33.29-21.79,69.36-22.65,105.36-.7,28.94,4.89,60.42,27,81,2.55,2.38,7.61,1.67,8.35-2.2a557.53,557.53,0,0,0,10.18-100.56Q1112.42,537.85,1110.31,512.69Zm-8.25,58.12a542.14,542.14,0,0,1-8,80.72c-15.18-19.27-18.25-45.61-17.32-69.69,1.21-31,7.93-61.8,18.77-90.87,3.25,2.82,3.59,9.35,4,13,.72,7.07,1.27,14.17,1.7,21.26Q1102.6,548,1102.06,570.81Z"/><path d="M1336,709.71c-4.8-4.73-11.64-6.32-17.61-8.94-7.33-3.23-9.9-8.46-11.33-16.08-3.36-18-5.89-36.21-8.83-54.29q-4.71-29.1-9.44-58.2c26.11-8.59,35.58-42,39.74-66.35,2.68-15.65,2.87-32.91-7.79-45.79-10-12.05-26.59-15.57-41.5-15.76-20.24-.25-40.38,4.21-59.11,11.74-3-1.39-7.36,0-7.28,4.31q1.14,62.73-1.24,125.46-1.2,31.35-3.3,62.65c-1.09,16.22-2.34,33.53-10,48.21-4.28,8.23-10.57,14-17.37,20.13-6.16,5.55-11.78,11.71-13.76,20a5.06,5.06,0,0,0,4.82,6.33,242.09,242.09,0,0,0,39.34-3c9.51-1.51,24.89-2.21,30.28-11.64,2.72-4.75,2-10.32,1.59-15.52l-1.74-20.83L1238,650.49c-1.47-17.57-4.94-40.12,6-55.56a22.21,22.21,0,0,1,9.14-7.74c3.28-1.35,2.9,1.53,3.48,4.19q1.18,5.55,2.16,11.15a315.41,315.41,0,0,1,4.32,38.15,326.19,326.19,0,0,1-7.54,88.94c-.64,2.84,1.41,6.72,4.82,6.33l55.61-6.41c6.31-.73,14.94-.32,20.09-4.74C1341,720.65,1340.4,714,1336,709.71Zm-7.4,8c-2.77,1.61-7.52,1.26-10.6,1.61l-51.27,5.91a331.21,331.21,0,0,0,3.22-116q-1.44-9.84-3.48-19.58c-1.1-5.25-2.58-11.13-8.51-12.71-9.13-2.43-18.81,7-23.24,14-5.09,8-7,17.59-7.8,26.87-.91,10.94.18,21.84,1.09,32.73q1.79,21.33,3.56,42.65c.68,8.12,1.63,16.27,2,24.4.18,3.7,0,6.68-3.78,8.4-3,1.36-6.7,1.82-9.86,2.48a222.62,222.62,0,0,1-40.34,4.61c2.72-4.25,6.73-7.67,10.57-11.08,5.9-5.24,11.31-10.71,15.32-17.59,8.3-14.23,10.76-31,12.15-47.14,3.56-41.56,4.78-83.47,5.36-125.17q.46-33.22-.09-66.45a147,147,0,0,1,48.26-11.1c12.88-.71,28.07-.1,38.49,8.56,11.07,9.22,11.53,24.6,9.59,37.78-1.85,12.53-5.07,25.54-10.33,37.09-5.44,12-13.59,23-27.1,25.8-2.85.6-3.91,3.62-3.5,6.15l16.17,99.7c2.07,12.74,2.15,29,13.89,37.12,5,3.42,11,4.7,16.28,7.38a23.22,23.22,0,0,1,3.67,2.24C1329.65,717.28,1330.16,716.82,1328.63,717.7Z"/><path d="M1290.66,482.32c-13.69-8.49-28.72-.33-43.18-3.71-3.65-.85-6.08,2.08-6.22,5-3.2-.78-7.39,1.82-6.45,6.11q3,13.57,6,27.17c1.46,6.66,3.42,14.06,11.63,14.36,7.41.28,15.47-4.49,22.18-7.13,6.49-2.56,13.13-5.17,18.23-10.11C1302.39,504.69,1302.46,489.64,1290.66,482.32Zm-4.93,24.58c-3.81,3.65-9,5.63-13.82,7.54-5.42,2.13-11,5-16.68,6.4-3.75.91-3.71-1.55-4.4-4.71s-1.42-6.47-2.13-9.7l-4-18.21.11,0c11.25,2.63,22.31-1.91,33.43.05,3.79.67,8.19,2.16,10.45,5.5C1291.66,498.19,1289.17,503.6,1285.73,506.9Z"/><path d="M1591.23,690.23a63.3,63.3,0,0,1-40.13-42.69c-3.27-11.67-3.89-23.81-5.38-35.78a201,201,0,0,0-7.08-33.2c-6.77-22.44-16.45-43.87-23.11-66.33a185.42,185.42,0,0,1-6.81-33.54c-1.12-10.77-1.83-21.89-5.55-32.15-6.66-18.37-28.27-35.74-47.86-23.9a5.1,5.1,0,0,0-1.84,1.86,4.58,4.58,0,0,0-4.23,4.79c.59,45.16-7,89.78-18,133.47-5.51,22-11.81,43.86-18.3,65.62-5.94,19.89-10.56,41.64-22,59.27-10.23,15.78-28.24,30.29-25.66,51.09.48,3.89,5.33,7.1,8.53,3.53,11.14-12.4,26.72-20.65,43.45-22,7.3-.57,16,1.35,21.58-4.61,5.06-5.38,3.3-13.16,1.18-19.42-6.25-18.47-5.2-37-.5-55.78a288.79,288.79,0,0,1,17.72-50.78c3.21-6.89,7-13.68,12.25-19.23,3.8-4,13.57-12.73,19.72-9.14,3.2,1.87,3.67,7.42,4.45,10.64l3.66,15.21q3.55,14.74,7.1,29.48c3.39,14.06,11.21,34.85,1.49,48-5,6.72-13.6,9.41-19.21,15.51-5,5.42-8.13,12.91-5.35,20.15s10.53,10.82,17.79,12.08c9.75,1.7,20,1.55,29.88,1a195.3,195.3,0,0,0,62.14-13.62C1595.77,698.06,1596.15,691.93,1591.23,690.23Zm-99.74.35c3.73-7.35,13-10.4,18.82-15.8,5.52-5.13,8.55-12.08,9.55-19.47,2.3-17.18-4.28-35.27-8.24-51.75q-3.67-15.21-7.33-30.43c-1.74-7.22-2.84-16.32-10-20.41-13.63-7.83-29.82,7.12-37.21,17.24-9.59,13.14-14.77,29.49-20.07,44.68-6.18,17.73-11.5,36.29-11.54,55.22,0,10.59,2.15,20.39,5.38,30.4,1.15,3.55,3.13,8.68-1.86,9.7-4.47.92-9.49.06-14.06.58a76.67,76.67,0,0,0-38.11,15.36c4.27-12.06,15.5-22.2,22.3-32.48,11.4-17.22,16.23-38.25,22.08-57.79,12.92-43.08,25.31-86.52,32.25-131a453.13,453.13,0,0,0,5.77-72.81,5.34,5.34,0,0,0,1.09-.51c7.82-4.73,17.07-1.69,23.64,3.86,7.85,6.63,10.94,16.44,12.66,26.25,1.92,11,2.24,22.17,4.26,33.15a229.24,229.24,0,0,0,8.71,32c7.15,21.05,16.11,41.52,21.75,63.07,3,11.51,4.48,23.13,5.77,34.93,1.23,11.25,2.65,22.66,6.89,33.24a73.17,73.17,0,0,0,32.62,36.75,183.8,183.8,0,0,1-44.8,8.79C1524.67,703.81,1483.06,707.19,1491.49,690.58Z"/><path d="M1784.53,394.84c-.36-8.43-3.46-17.55-12.73-19.53-7.54-1.61-14.75,2.6-20.47,7.6-6.57-6.85-16.65-9.6-26.15-8.05-13.18,2.14-24,11.94-32,22A105.76,105.76,0,0,0,1671,469.71c2.2,29.26,18,52.56,34.7,75.65s36.51,51.71,28.71,81.7c-4.05,15.58-15.13,29.86-25.85,41.54-9.18,10-19.89,18.52-32.55,23.27a71.27,71.27,0,0,0-33.08-55c-3.93-2.46-8.17,1.59-7.35,5.65,3.6,17.66-8,35-3.34,52.74,4.79,18.15,26.13,23.7,42,28.08,17.35,4.77,37.12,7.61,54.47,1.24s28.38-21,33.44-38.53c5.39-18.69,6.36-39.34,7-58.69.61-19.55-.54-39.63-6.48-58.39a101.79,101.79,0,0,0-11.93-25.5c-6-9-13.73-16.48-20.85-24.56a74.11,74.11,0,0,1-18.58-54.3c1.21-18.63,10.92-44.65,32-48.26,11.92-2,16.78,8.57,19.4,18.32a354.52,354.52,0,0,1,8.11,39.68c.79,5.29,7.61,4.29,9.32.16a4.66,4.66,0,0,0,4.33-4.79C1784.53,444.8,1785.58,419.69,1784.53,394.84Zm-23.94,16c-14.17-10.9-33.31-1.25-43.4,10.64-12.09,14.24-17,34.66-15.92,53,1.13,19.42,8.76,36.91,21.55,51.46,7.24,8.23,15.19,15.74,21,25.16a97.22,97.22,0,0,1,11.16,27.18c4.88,19.37,5,39.65,3.72,59.48-1.16,18.7-1.74,39.93-10.48,56.93-9,17.41-26.38,24.13-45.19,23.39-10.6-.42-21-2.8-31.14-5.91-9.21-2.83-21.95-5.77-27.61-14.29-5.38-8.11-2.67-18.94-.9-27.75a121.13,121.13,0,0,0,2.72-18.49,61.11,61.11,0,0,1,20.1,47,5.05,5.05,0,0,0,6.33,4.83c25.79-6.75,45-27.17,59.41-48.59,7.92-11.73,13.64-24.59,14.12-38.91.48-13.92-3.63-27.58-9.43-40.1-12-26-33.06-46.35-45.86-71.87a95.27,95.27,0,0,1-3.88-75.72c4.92-13.39,13.15-26.36,24.14-35.59,9.71-8.16,27.66-13.54,35.43.22a5,5,0,0,0,7.85,1c3.52-3.67,14.35-14.06,18.83-6.19,1.65,2.91,1.45,6.75,1.48,10,0,4.66,0,9.33,0,14l0,28.8c-.32-1.38-.66-2.76-1-4.14C1771.2,427.06,1768.58,417,1760.59,410.82Z"/><path d="M364,1013.82c-1.94-3.37-5.52-5.2-8.07-8-3-3.3-4.93-7.53-6.38-11.72-6.74-19.44-10.12-40.71-13.07-61a485,485,0,0,1-4.94-65.39c-.09-10.43.83-20.91.56-31.32-.21-8-2.59-15.71-9.3-20.61-14.92-10.91-34.23-2.5-44.6,10.33-6.81,8.42-11.66,18.23-16.85,27.66S251.07,872.38,246,881.69c-10.75-9.91-15-25.32-22-37.78-7.61-13.41-19.41-25.77-35.75-26.27a4.37,4.37,0,0,0-4,1.94,4.7,4.7,0,0,0-1.84,3.77c-.83,37.82-1.66,75.67.32,113.47,1.68,32,7.38,71.6-19.5,95.5-3.41,3-.55,8.37,3.53,8.53a150.87,150.87,0,0,0,56.43-8.54c2.77-1,5-4.53,3-7.35-5.88-8.24-6.3-18.19-6.47-28-.22-12.24-.37-24.48-.55-36.72l-.9-61.43c4.74,4.59,9.68,9,14.84,13.11,6.74,5.41,15.8,14.66,25.19,13.45,9.15-1.18,14-11.21,18.59-18l11.32-16.89,3,52.54q1,17.41,2,34.84l.9,15.93c.26,4.66,1.28,10.29-1.64,14.31-4,5.55-11,8-13,15.18-2.1,7.52,2.82,14.67,9.61,17.61,9,3.89,19.15-.1,28-2.59l32.09-9.06C355.89,1027.27,370,1024.29,364,1013.82Zm-14.78,4.95-6.61,1.87-14.15,4c-9.07,2.56-18.34,6-27.65,7.56-6.95,1.13-16.14-3.21-8.94-10.06,4.69-4.47,10-7.91,11.7-14.57,1.17-4.49.71-9.24.45-13.8l-1-16.92q-1-16.94-1.91-33.85-1.92-33.84-3.82-67.69a5,5,0,0,0-9.32-2.52l-16.05,23.93q-3.74,5.58-7.48,11.17c-1.7,2.52-4.11,7.17-7.48,7.68s-8.3-4.2-10.75-6q-5.26-3.87-10.26-8.1a221.35,221.35,0,0,1-19.4-18.61c-2.95-3.19-8.6-.71-8.53,3.53l1.14,77.88c.18,12.21.17,24.45.58,36.66.27,8.14,1.19,16.42,4.64,23.76a142.34,142.34,0,0,1-36.17,6.17c18.87-24.36,16.56-58.57,14.79-88.14-2.28-38.15-1.59-76.38-.76-114.57,13.42,2.84,21.63,17.27,27.1,28.8,6.52,13.75,12.62,27.78,25.6,36.67a5.05,5.05,0,0,0,6.84-1.8c9-16.39,17.66-33.07,27.17-49.19,6.87-11.65,18.2-25.69,33.58-20.92,7.6,2.36,9.57,8.94,9.54,16.29,0,9.27-.62,18.52-.58,27.8A493.52,493.52,0,0,0,325.11,923a504.32,504.32,0,0,0,10,55.92c1.86,7.82,3.66,15.76,6.9,23.15,2.78,6.34,6.94,10.84,11.84,15.37l-.84.23A18.42,18.42,0,0,0,349.19,1018.77Z"/><path d="M494.48,1016.41c-19.46-17.57-22.3-45.6-25-70.16-1.81-16.31-3.46-32.65-4.86-49-1.15-13.49-1.95-27.09-.92-40.63,1.16-15.29,5.13-30.15,13.79-42.94,2.07-3.06-.64-7.75-4.32-7.52l-64.75,4.07a5.51,5.51,0,0,0-1.33.25l0,0c-4.67-4.43-11.75,2.63-7.07,7.07,27.35,25.92,24.89,69.48,26.26,104q.69,17.1,1.36,34.2c.42,10.57,1.91,21.73.62,32.27a22.49,22.49,0,0,1-5,12.06c-3.12,3.75-6.82,6.78-8.74,11.4-3.41,8.23.15,16.36,8.73,19,10.78,3.29,23.48,3.39,34.61,2.46a118.42,118.42,0,0,0,34.44-8.16C495.5,1023.47,497.55,1019.18,494.48,1016.41Zm-65.77,5.08c-5-1-7-3.35-3.95-8.11,2.45-3.8,6.28-6.55,8.76-10.39,4.79-7.44,5.18-16.73,4.92-25.31-.64-21.64-1.71-43.28-2.57-64.92-.71-18-1.14-36-4.54-53.74-2.7-14.07-7.66-27.77-16.09-39.23l48.8-3.07c-11.71,22.77-11.8,49.72-9.91,74.88,1.28,16.95,3.05,33.88,4.89,50.78,1.55,14.16,3,28.49,6.58,42.3,3.18,12.1,8.29,23.74,16.39,33.21C464.9,1023.44,446.35,1025.14,428.71,1021.49Z"/><path d="M683.92,861.85c-.54-9.24-2-18.6-6.41-26.85-9.87-18.47-33-27.64-52.27-32.2a130.14,130.14,0,0,0-61.57.53c-2.51-3-8.85-2-9,3.15a809.55,809.55,0,0,0,7.73,133.11q4.67,33,12.06,65.44c3.35,14.68,8.67,35.87,28.28,32.94,9.3-1.39,18.32-7.28,26.22-12.09A123.63,123.63,0,0,0,651.19,1009c14.23-13.92,22.5-32.21,27.1-51.35,5-20.89,6.11-42.52,6.15-63.93C684.45,883.12,684.54,872.44,683.92,861.85Zm-12.68,80.26c-2.91,17.62-8,35.48-18.62,50.11-10.34,14.25-25.69,24-41.11,32-7.48,3.85-15.87,6.76-21.08-1.75-4.1-6.71-5.25-15.34-6.94-22.88q-6.43-28.71-10.73-57.84a790,790,0,0,1-8.2-128.29A118.86,118.86,0,0,1,615.74,811c16.5,2.91,35.31,8.9,47.35,21.16,13,13.27,11.12,34,11.29,51.15C674.59,902.94,674.44,922.72,671.24,942.11Z"/><path d="M653.2,898.65c-.27-12.27-.83-24.74-6.35-35.95-10.36-21-34.33-32.83-57.21-29.63-3.79.53-4.35,4.18-2.85,6.85a4.63,4.63,0,0,0-.75,2.85,469.51,469.51,0,0,0,10.53,82.32q4.54,20.64,11,40.82c2.83,8.85,5.53,23.27,15.54,27,10.84,4.09,18.93-7.11,22.28-15.83,4.61-12,6.41-25.21,7.37-38C653.76,925.69,653.5,912.15,653.2,898.65Zm-9.89,29.5a173.46,173.46,0,0,1-3.79,33.23c-1,4.37-6.08,27-14,21.5-3.25-2.24-4.51-8.17-5.68-11.6q-2.87-8.44-5.41-17-4.81-16.21-8.42-32.76a454.61,454.61,0,0,1-10-78.74l0-.39c15.91-.69,32,8.22,40.21,21.74,5.54,9.08,6.55,19.56,6.87,30C643.43,905.43,643.65,916.81,643.31,928.15Z"/><path d="M876,899.45c-.65-16.84-3.49-34-11.61-49-9.55-17.58-26.17-29.43-45-35.44-23.15-7.39-47.83-5.7-71.63-3.23-5.28.55-6.2,7.57-2.67,9.53a5.42,5.42,0,0,0-.11.72A645.61,645.61,0,0,0,748,955q2.12,16.59,5,33c1.48,8.25,3.05,16.41,6.37,24.16,6.36,14.81,19.39,24.58,35.8,18.5,9.39-3.48,18.33-8.79,26.92-13.88a249.47,249.47,0,0,0,25.11-16.73c7.37-5.69,14-12.28,18.24-20.66,4.15-8.11,6.27-17,7.52-25.94A311.06,311.06,0,0,0,876,899.45Zm-11.23,37.23c-1.27,16.42-2.79,34.54-14.43,47.3-6,6.55-13.42,11.58-20.78,16.44q-11.84,7.82-24.38,14.49c-7,3.7-16.08,9.89-24.29,7.15-6.09-2-9.81-8.11-12.25-13.69-3.05-7-4.37-14.58-5.71-22q-2.75-15.12-4.74-30.37a645.25,645.25,0,0,1-3.21-133.9,5,5,0,0,0,0-.95c33.15-3,71.87-3,94.56,25C869.58,870.88,867,906.89,864.72,936.68Z"/><path d="M848.59,916.72c-.76-12.79-2.83-25.6-7.86-37.45-4.83-11.38-12.35-21.57-22.53-28.71-12-8.44-26.78-10-41-11.79-4.16-.52-5.58,3.56-4.31,6.68a855.48,855.48,0,0,0,6.77,87q2.79,21.38,6.6,42.6c1.15,6.33,1.85,13.11,3.76,19.26s7.59,6.74,13.14,6.22c23.72-2.25,39.08-24,43.49-45.79C849.2,942.3,849.33,929.37,848.59,916.72ZM838.26,944c-2,19.51-12,42.4-33.56,46.28a22.19,22.19,0,0,1-5.22.44c-.08-.39-.18-.77-.25-1.15-.34-1.59-.64-3.18-1-4.77q-1.87-9.52-3.53-19.1-3.19-18.48-5.55-37.1-4.94-39.39-6.15-79.11c9.1,1.17,18.33,2.74,26.34,7.31,8.64,4.92,15.2,12.69,19.82,21.4C839.51,897.59,840.46,922.58,838.26,944Z"/><path d="M1097.6,1001.36a98.33,98.33,0,0,1-12.47-10.77c-16.61-17.69-22.44-42.31-29.79-64.74q-13.65-41.6-27.28-83.18c-3.74-11.39-7.07-23.56-15.08-32.82-7.28-8.39-18.6-13.16-29.57-10.22a4.7,4.7,0,0,0-3.33,6.11,5.27,5.27,0,0,0-.62,2.11c-3.74,41.4-16.25,81.44-27.38,121.3q-8.43,30.17-16.85,60.32c-4.89,17.47-10.15,35-21,49.75-2.57,3.5,1.7,8.7,5.64,7.35,11.21-3.83,22.71-7.46,33.45-12.47,9.33-4.35,16.88-11.1,20.66-20.83,3.64-9.38,3.47-19.8,2.82-29.67-.72-11.05-1.69-21.93-.77-33a127.7,127.7,0,0,1,7.85-34.76c3.22-8.45,11.72-22.76,23-17.25,7.67,3.74,8.16,15.46,8.52,22.77.62,12.76,1.08,25.54,1.62,38.31l1.62,38.31q.42,9.81.83,19.64c.23,5.31.11,11,2.39,15.89,4.22,9.13,14.33,10.53,23.24,8.76,11.08-2.2,22.07-7.66,32.27-12.37q7.65-3.53,15.09-7.5c4.31-2.29,9.5-4.83,10.54-10.1C1103.9,1007.56,1101.17,1004.08,1097.6,1001.36Zm-6.31,10.26c-2.28,1.45-4.83,2.64-7.22,3.88q-7.9,4.08-16,7.69c-5.31,2.35-10.71,4.52-16.16,6.54-4.35,1.6-9,3.39-13.71,3.31-5.4-.09-7.71-3-8.35-8.28-.75-6.22-.59-12.67-.85-18.94l-3.08-72.68c-.64-15,.54-40.2-18.41-44.93-22.09-5.51-32.58,20.28-37.05,36.89a141.85,141.85,0,0,0-4.86,37.29c0,11.24,2,22.4,1.55,33.64-.4,11.07-4,20.89-13.83,26.8-7.08,4.24-15.14,7.2-23.19,9.87A155.68,155.68,0,0,0,940.84,1006c4.82-15.43,8.87-31.13,13.21-46.69,8.91-31.9,18.51-63.69,26.08-95.94a401.73,401.73,0,0,0,9.24-54.59c8.78-.5,16.18,6.43,20.36,13.86,5.39,9.59,8.07,20.85,11.48,31.24q11.63,35.45,23.24,70.89c6.81,20.76,12.22,43.48,24.68,61.75a91.57,91.57,0,0,0,20.89,21.69C1092.2,1009.8,1094,1009.89,1091.29,1011.62Z"/><path d="M1015.44,860.76a50.81,50.81,0,0,0-9.07-23.64,5.2,5.2,0,0,0-6.43-1.73c-2.77-.48-6,1.1-6,4.74-.12,9.64-1.33,20,0,29.51,1.07,7.57,7.21,14,15.36,11.72S1016.23,867.42,1015.44,860.76Zm-11.78-1.66.06-5.15a40.32,40.32,0,0,1,1.73,17.63C1002.75,870.25,1003.64,860.77,1003.66,859.1Z"/><path d="M1265.63,1013.09c-14.13-.92-9.6-26.73-9.3-35.5q.8-23,1.57-45.93c.19-5.84.34-12.15-3.91-16.73s-10.57-5.78-16.28-7.06a136.89,136.89,0,0,0-44.31-2.47c-2.61.28-5.11,2.06-5,5q.49,13.27,1.55,26.51c.64,7.93.36,17.23,2.74,24.85,1.77,5.66,7.85,9.06,13.33,6,4.88-2.72,7.46-8.66,7.89-14,.2-2.51,0-5.07.89-7.5,1.13-3.27,2-1.25,2.88,1.23,2.21,6.63,2.59,14.52,2.61,21.46,0,13.41-3.92,28.16-16.73,34.67-9.72,4.94-23.11,4.33-28.18-6.68-3.18-6.9-3.12-15.23-3.71-22.66q-1-13.23-1.85-26.48c-2-32.67-5.65-68.18,7.14-99.22,5.93-14.4,15.66-27.9,29.2-36,1.15-.68,3.59-2.5,5-2.17,1.65.4,1.67,2.45,1.91,4a30.75,30.75,0,0,1-.48,11.47,32.36,32.36,0,0,1-11.87,18.67c-4.89,3.66-.48,11.81,4.45,9a5,5,0,0,0,.9.16,246.43,246.43,0,0,0,61-2.43c5.75-.94,4.09-9.65-1.32-9.82-8.48-.26-11.11-10.92-11.7-17.67-.74-8.6-.66-17.18-4.61-25.09-7.71-15.42-24.18-19.48-40.1-19.69s-33.29.89-45.48,12.51c-10.66,10.17-14.88,25.28-17.57,39.29a577.2,577.2,0,0,0-10,117.11c.26,17.33-.45,36.72,6.53,53,5.72,13.28,17.14,22.6,30.21,28.21,15,6.44,31.91,8.88,48.17,8.71,17.41-.18,34.88-4.3,48.05-16.23C1272.59,1018.52,1269.68,1013.36,1265.63,1013.09Zm-82.85,9.17c-12.11-4-23.6-11.18-29.71-22.74-7.68-14.55-6.54-33.63-6.84-49.59a577.9,577.9,0,0,1,7.88-106.63c2.31-13.66,4.47-28.91,12.93-40.36,9.53-12.88,25.76-13.94,40.51-13.87,8.67,0,18.17.35,25.5,5.59s9.85,13.39,10.46,22.07c.57,8.17.71,16.49,5,23.78a25.29,25.29,0,0,0,2,3,237.63,237.63,0,0,1-35.89.85,42.08,42.08,0,0,0,8.17-31.91c-1.19-7.61-5.9-13.48-14.26-11.68-7.45,1.62-14.47,7.61-19.86,12.7-27.49,26-31.56,65.85-30.48,101.6.63,21.07,2.09,42.14,3.8,63.14,1.22,15.1,3.82,32.11,20.5,37.2,12.83,3.91,28.24-1.46,36.81-11.52,11.13-13.07,12.18-31.55,10-47.81-1-7.34-1.85-18.25-10.09-21.21-7.91-2.82-13.31,4-14.63,11.06-.65,3.45,0,7.57-1.62,10.74a6.58,6.58,0,0,1-1.35,2c-.56.42.14-1.08.22-2.06.21-2.77-.68-6.1-.95-8.88-1.08-10.89-1.83-21.81-2.32-32.74a127.1,127.1,0,0,1,39.2,3.21c3,.74,7.34,1.35,9.17,4.12,1.71,2.59,1,6.44.93,9.38q-.37,11.73-.8,23.46c-.49,14.49-2.25,29.57-1.2,44,.57,7.94,3.64,15.83,9.61,20.29-9.74,6-21.43,8.1-32.86,8.38A117.87,117.87,0,0,1,1182.78,1022.26Z"/><path d="M1477,999.91c-2.34-8.24-6.15-18.13-16.17-18.62-8.82-.43-16.36,6.35-22.42,11.9a65.46,65.46,0,0,1-50,17.33c-7.67-.63-21.37-2.53-24.37-10.85-1.51-4.2-1.43-9.25-1.69-13.66-.34-5.62-.41-11.25-.37-16.88.16-20.93,2.17-42-.3-62.84a120.05,120.05,0,0,0-5.29-24.31l31.36-1.4,17.75-.79c5.38-.24,11.37-1.32,16.72-.67,4.34.53,5.26,5.17,6.94,8.57,1.83,3.71,4.9,7.27,8.9,8.68,8.73,3.06,14.45-4.75,14.09-12.77-.45-10.28-3.38-21-5.66-31-1.88-8.22-3.37-18.35-9.83-24.45-7-6.58-15.36-3.76-22.09,1.51a72.61,72.61,0,0,1-26.1,13.48c-8.51,2.28-17.79,3.36-26.33.67-7.58-2.38-13.83-8.72-10.54-17.12,3.83-9.75,14.86-12.91,24.19-14.57,9.51-1.7,20.41-3.66,29.93-1.09,7.84,2.11,14.59,11.72,23.41,9.12,8.49-2.5,8.7-14.07,8.87-21.3.2-8.22-1.88-16.74-8.78-21.87-7.59-5.65-18-5.29-27-5.38a278.3,278.3,0,0,0-66.87,7.5c-8.73,2.06-16.93,4.8-19.69,14.3s-.4,20.86.15,30.48l8,140.86q1,17.85,2,35.71c.51,9-1.14,21.84,6.42,28.45,6.58,5.76,16.8,5.29,25,5.88l35.62,2.56,70.26,5.05c4,.29,8.67,1.22,12.28-1,3.84-2.41,4.6-6.84,4.89-11A89.44,89.44,0,0,0,1477,999.91Zm-6.62,28.66c-.12,2.67.4,4.07-2.32,4.19-5.16.22-10.67-.77-15.83-1.14l-16.83-1.21-64.32-4.63-15.83-1.14c-4.29-.3-8.94-.2-13.07-1.59-4.81-1.62-5.31-5-5.59-9.7-.34-5.62-.64-11.24-1-16.86q-3.69-65-7.39-129.94c-1.19-21.07-3.16-42.25-3.56-63.35-.06-3.53-.15-8.15,2.72-10.73,3.21-2.91,9.36-3.45,13.38-4.36a262.6,262.6,0,0,1,31.27-5.13,271.47,271.47,0,0,1,30.18-1.37c7.9.08,20.59-1.15,24.43,7.66,1.5,3.45,1.53,7.34,1.34,11-.1,1.92-.3,3.84-.56,5.75-.33,2.37-.17,4.69-2.87,4-3.69-.95-7-4.94-10.53-6.59a38,38,0,0,0-12.39-3.23c-8.89-.94-18,.54-26.77,2-8.5,1.39-17.2,3.72-24,9.31-12,9.93-14.06,28-.54,37.58,12.74,9,30.79,7.12,44.77,2.51a78.5,78.5,0,0,0,23.37-12.35c2.74-2.11,7-6.79,10.75-4.37,2.74,1.8,4,6,4.84,9a296.53,296.53,0,0,1,6.74,30.91c.35,2,2.94,10.35,1.13,11.88-2,1.73-5.35-6.86-6.12-8.37-4.2-8.23-10.86-9.38-19.46-9l-32.53,1.45-31.54,1.41a5,5,0,0,0-2.74.91c-3.18-.11-6.32,2.28-4.83,6,14.85,36.68,4.19,76.7,8.3,114.88.92,8.58,3.27,15.89,11.31,20.23,7.07,3.81,15.42,5.55,23.35,6.29a74.6,74.6,0,0,0,46.2-11.09c7.14-4.53,12.58-11.19,19.71-15.64,2.92-1.83,6.79-3.83,9.7-.93,3.36,3.33,4.37,10.53,5.34,15a78.88,78.88,0,0,1,1.73,13.69C1470.51,1023.82,1470.5,1026.2,1470.4,1028.57Z"/><path d="M1488.32,516.41c-3.59-6.19-4.36-13.53-4.43-20.56-.07-7.37,1.75-15.89,0-23.09-1.41-5.7-7-8.29-12.46-6.79s-9.24,6.81-10.65,12.13c-1.81,6.88-1,14.58-1,21.62q-.06,12.5-.1,25c0,3.4,2.77,5,5.41,4.81a4.77,4.77,0,0,0,3,1l11.36,0c2.83,0,6,.32,8.59-1C1494.21,526.25,1490.82,520.72,1488.32,516.41Zm-18.71,4.12.1-23.8c0-4.34-.25-8.79.18-13.12.21-2.15.66-4.93,2.24-6.58a3.82,3.82,0,0,1,2.58-1.55,2.18,2.18,0,0,0-.43,1.89c.66,4.31-.22,9.26-.33,13.62a91.33,91.33,0,0,0,.41,12.92,49,49,0,0,0,2.41,11.1,43.89,43.89,0,0,0,2.13,5c.08.16.18.32.28.49-.88,0-1.75.06-2.61,0Z"/></svg>